<svg width="24" height="24" viewBox="0 0 24 24" fill="none" xmlns="http://www.w3.org/2000/svg">
<path d="M19.7842 15.1595C19.0897 13.9154 18.7209 12.1298 18.7209 9.99922C18.7209 8.14291 18.0128 6.36263 16.7524 5.05002C15.4921 3.73742 13.7826 3 12.0002 3C10.2178 3 8.50834 3.73742 7.24797 5.05002C5.9876 6.36263 5.27953 8.14291 5.27953 9.99922C5.27953 12.1306 4.91229 13.9154 4.21782 15.1595C4.07611 15.4132 4.00099 15.7013 4.00001 15.9949C3.99903 16.2884 4.07221 16.577 4.21222 16.8318C4.35134 17.0867 4.55326 17.2983 4.79715 17.4448C5.04103 17.5913 5.31803 17.6673 5.59956 17.665H8.49425C8.57364 18.5763 8.97735 19.4237 9.62607 20.0408C10.2748 20.6579 11.1216 21 12.0002 21C12.8788 21 13.7256 20.6579 14.3743 20.0408C15.0231 19.4237 15.4268 18.5763 15.5062 17.665H18.4009C18.682 17.6668 18.9585 17.5906 19.2019 17.4441C19.4453 17.2977 19.6469 17.0863 19.7858 16.8318C19.9264 16.5774 20.0003 16.2889 20 15.9954C19.9997 15.7019 19.9253 15.4136 19.7842 15.1595ZM12.0002 18.9982C11.6313 18.9983 11.2737 18.8656 10.988 18.6227C10.7022 18.3797 10.5058 18.0414 10.432 17.665H13.5684C13.4946 18.0414 13.2982 18.3797 13.0124 18.6227C12.7267 18.8656 12.3691 18.9983 12.0002 18.9982ZM6.13241 15.6653C6.84048 14.1654 7.19972 12.2606 7.19972 9.99922C7.19972 8.67328 7.70548 7.40166 8.60575 6.46408C9.50602 5.5265 10.727 4.99978 12.0002 4.99978C13.2734 4.99978 14.4944 5.5265 15.3947 6.46408C16.2949 7.40166 16.8007 8.67328 16.8007 9.99922C16.8007 12.2598 17.1591 14.1654 17.8672 15.6653H6.13241Z" fill="#A64DF4"/>
</svg>
