<svg width="375" height="720" viewBox="0 0 375 720" fill="none" xmlns="http://www.w3.org/2000/svg">
<g opacity="0.03" clip-path="url(#clip0_4_494)">
<mask id="mask0_4_494" style="mask-type:luminance" maskUnits="userSpaceOnUse" x="-173" y="0" width="720" height="720">
<path d="M-173 720H547V0H-173V720Z" fill="white"/>
</mask>
<g mask="url(#mask0_4_494)">
<path d="M-292.232 260.712L-280.568 228.6C-268.328 267.336 -226.496 137.088 -144.344 120.456C-62.12 103.752 -124.832 270.36 -34.7599 279.72C55.2401 289.08 227.32 17.9999 357.856 215.424C488.392 412.776 769.264 350.496 769.264 350.496L751.552 399.096C751.552 399.096 461.032 461.808 327.472 256.392C193.912 51.0479 33.424 328.104 -51.464 315.504C-136.352 302.904 -73.8559 147.672 -156.08 163.296C-238.16 178.848 -278.048 305.928 -292.232 260.712Z" fill="#EDECF9"/>
</g>
<mask id="mask1_4_494" style="mask-type:luminance" maskUnits="userSpaceOnUse" x="-173" y="0" width="720" height="720">
<path d="M-173 720H547V0H-173V720Z" fill="white"/>
</mask>
<g mask="url(#mask1_4_494)">
<path d="M-315.56 324.576L-303.968 292.68C-287.696 344.376 -249.824 220.536 -167.672 205.992C-85.4479 191.52 -147.728 335.376 -67.952 351.216C11.8241 367.056 160.72 84.024 297.232 297.36C433.816 510.768 733.912 447.624 733.912 447.624L716.272 496.08C716.272 496.08 406.528 559.656 266.992 338.328C127.456 117 -9.77592 406.008 -84.4399 386.928C-159.104 367.848 -97.0399 235.296 -179.192 248.688C-261.416 262.08 -297.2 382.68 -315.56 324.576Z" fill="#EDECF9"/>
</g>
<mask id="mask2_4_494" style="mask-type:luminance" maskUnits="userSpaceOnUse" x="-173" y="0" width="720" height="720">
<path d="M-173 720H547V0H-173V720Z" fill="white"/>
</mask>
<g mask="url(#mask2_4_494)">
<path d="M-338.672 388.08L-327.152 356.4C-306.776 420.984 -273.008 303.552 -190.784 291.24C-108.632 278.856 -170.48 400.032 -101 422.424C-31.52 444.816 94.192 149.76 236.68 379.08C379.168 608.4 698.56 544.392 698.56 544.392L680.992 592.632C680.992 592.632 352.024 657.072 206.44 419.76C60.856 182.376 -53.12 483.48 -117.56 457.848C-181.928 432.216 -120.224 322.416 -202.448 333.648C-284.456 344.952 -316.28 459.144 -338.672 388.08Z" fill="#EDECF9"/>
</g>
<mask id="mask3_4_494" style="mask-type:luminance" maskUnits="userSpaceOnUse" x="-173" y="0" width="720" height="720">
<path d="M-173 720H547V0H-173V720Z" fill="white"/>
</mask>
<g mask="url(#mask3_4_494)">
<path d="M-346.592 409.752L-342.632 398.808C-322.328 463.392 -289.28 364.968 -208.208 357.912C-130.088 351.216 -182.432 452.16 -119.576 477.36C-52.184 504.648 55.744 237.744 205.576 445.536C358.432 657.504 671.848 618.048 671.848 618.048L662.56 643.536C662.56 643.536 366.064 659.16 204.568 471.384C51.7119 293.616 -51.248 525.744 -121.736 497.016C-183.008 472.032 -140.24 379.944 -214.112 382.464C-294.248 385.128 -328.232 467.856 -346.592 409.752Z" fill="#EDECF9"/>
</g>
<mask id="mask4_4_494" style="mask-type:luminance" maskUnits="userSpaceOnUse" x="-173" y="0" width="720" height="720">
<path d="M-173 720H547V0H-173V720Z" fill="white"/>
</mask>
<g mask="url(#mask4_4_494)">
<path d="M-353.504 428.832L-350.624 420.984C-334.352 472.608 -299.432 405.432 -220.088 407.16C-150.608 408.672 -183.728 492.336 -124.04 516.96C-50.528 547.272 49.264 349.848 203.416 497.592C375.136 662.184 653.128 669.384 653.128 669.384L644.92 691.92C644.92 691.92 387.52 662.328 203.488 520.416C50.2 402.264 -48.584 565.416 -125.12 533.592C-183.296 509.4 -159.824 433.944 -224.912 428.616C-303.608 422.136 -339.32 474.048 -353.504 428.832Z" fill="#EDECF9"/>
</g>
<mask id="mask5_4_494" style="mask-type:luminance" maskUnits="userSpaceOnUse" x="-173" y="0" width="720" height="720">
<path d="M-173 720H547V0H-173V720Z" fill="white"/>
</mask>
<g mask="url(#mask5_4_494)">
<path d="M-360.272 447.264L-356.672 437.4C-344.432 476.136 -308.072 439.272 -230.024 450.648C-169.4 459.432 -183.152 526.968 -126.488 550.8C-46.928 584.28 53.1521 454.032 203.344 543.888C402.064 662.832 636.496 715.104 636.496 715.104L627.568 739.584C627.568 739.584 418.48 663.12 202.696 568.8C57.688 505.44 -45.704 604.584 -128.288 569.448C-183.44 546.048 -179.408 486.072 -235.568 474.048C-313.04 457.488 -350.048 479.592 -360.272 447.264Z" fill="#EDECF9"/>
</g>
<mask id="mask6_4_494" style="mask-type:luminance" maskUnits="userSpaceOnUse" x="-173" y="0" width="720" height="720">
<path d="M-173 720H547V0H-173V720Z" fill="white"/>
</mask>
<g mask="url(#mask6_4_494)">
<path d="M-372.152 479.952L-365.312 461.088C-357.176 486.936 -319.376 479.232 -242.624 501.408C-190.856 516.384 -185.24 569.016 -131.6 591.984C-45.992 628.704 62.008 558.288 200.536 597.528C435.184 664.128 617.2 768.024 617.2 768.024L605.032 801.504C605.032 801.504 450.736 665.424 196.72 631.44C64.888 613.8 -47.936 658.008 -136.568 619.632C-188.624 597.096 -203.888 551.448 -251.336 533.88C-327.368 505.584 -366.032 499.32 -372.152 479.952Z" fill="#EDECF9"/>
</g>
<mask id="mask7_4_494" style="mask-type:luminance" maskUnits="userSpaceOnUse" x="-173" y="0" width="720" height="720">
<path d="M-173 720H547V0H-173V720Z" fill="white"/>
</mask>
<g mask="url(#mask7_4_494)">
<path d="M-387.056 520.92L-379.496 500.04C-375.392 512.928 -335.576 532.728 -260.696 567.432C-217.424 587.52 -192.8 626.256 -142.256 648.432C-50.528 688.536 66.184 668.448 192.328 666.504C464.488 662.184 592.36 836.208 592.36 836.208L579.472 871.632C579.472 871.632 474.856 654.552 187.72 702.288C65.3199 722.592 -53.4801 719.928 -148.016 677.952C-197.12 656.352 -230.816 624.168 -270.2 601.776C-343.496 560.088 -385.04 527.328 -387.056 520.92Z" fill="#EDECF9"/>
</g>
</g>
<defs>
<clipPath id="clip0_4_494">
<rect width="720" height="720" fill="white" transform="matrix(-1 0 0 -1 547 720)"/>
</clipPath>
</defs>
</svg>
